<?xml version="1.0" standalone="no"?><!DOCTYPE svg PUBLIC "-//W3C//DTD SVG 1.1//EN" "http://www.w3.org/Graphics/SVG/1.1/DTD/svg11.dtd"><svg t="1625195901868" class="icon" viewBox="0 0 1024 1024" version="1.1" xmlns="http://www.w3.org/2000/svg" p-id="996" xmlns:xlink="http://www.w3.org/1999/xlink" width="200" height="200"><defs><style type="text/css"></style></defs><path d="M512 512m-448 0a448 448 0 1 0 896 0 448 448 0 1 0-896 0Z" fill="#10AEFF" p-id="997"></path><path d="M544 480V320c0-17.7-14.4-32-32-32s-32 14.4-32 32v159.9H320c-17.7 0-32 14.4-32 32s14.4 32 32 32h160v159.9c0 17.7 14.4 32 32 32 8.8 0 16.8-3.5 22.6-9.3s9.4-13.8 9.3-22.6l0.1-160h160c8.8 0 16.8-3.5 22.6-9.3 5.8-5.8 9.4-13.8 9.3-22.6 0-17.7-14.4-32-32-32H544z" fill="#FFFFFF" p-id="998"></path></svg>